<?xml version="1.0" encoding="utf-8"?>
<!-- Generator: Adobe Illustrator 26.1.0, SVG Export Plug-In . SVG Version: 6.00 Build 0)  -->
<svg version="1.1" id="Layer_1" xmlns="http://www.w3.org/2000/svg" xmlns:xlink="http://www.w3.org/1999/xlink" x="0px" y="0px"
	 viewBox="0 0 76 76" style="enable-background:new 0 0 76 76;" xml:space="preserve">
<style type="text/css">
	.st1{fill:#EA4335;}
	.st2{fill:#34A853;}
	.st3{fill:#188038;}
	.st4{fill:#1967D2;}
	.st5{fill:#4285F4;}
	.st6{display:none;fill:#FBBC04;}
	.st7{fill:#FBBC04;}
	.st8{fill:#FF9500;}
</style>
<path class="st1" d="M58,76l18-18H58V76z"/>
<path class="st2" d="M58,58H18v18h40V58z"/>
<path class="st3" d="M0,58v12c0,3.3,2.7,6,6,6h12V58H0z"/>
<path class="st4" d="M76,36V24c0-3.3-2.7-6-6-6H58v18H76z"/>
<path class="st5" d="M58,18H6c-3.3,0-6,2.7-6,6v34h18V36h40V18z"/>
<rect x="58" y="36" class="st1" width="18" height="22"/>
<circle class="st6" cx="38.5" cy="27" r="15.7"/>
<circle class="st7" cx="38.5" cy="18" r="18"/>
<path class="st8" d="M38.3,36h0.4c9.8-0.1,17.8-8.1,17.8-18h-36C20.5,27.9,28.5,35.9,38.3,36z"/>
</svg>
